<svg xmlns="http://www.w3.org/2000/svg" version="1.1" xmlns:xlink="http://www.w3.org/1999/xlink" xmlns:svgjs="http://svgjs.com/svgjs" id="BgenPttrnSvgRootPreview" width="100%" height="100%"><defs><pattern x="0" y="0" width="1" height="1" patternUnits="userSpaceOnUse" id="BgenPttrnLayer1"><g id="PatternRootContent1"><g id="BgenPttrnLayer1background"><rect width="1" height="1" id="BgenPttrnBackground1" class="color_1 fill_color_1" fill="#f2f2f0"></rect></g></g></pattern><pattern x="0" y="0" width="82" height="142" patternUnits="userSpaceOnUse" id="BgenPttrnLayer2" patternTransform="matrix(1,0,0,1,0,0)"><g id="PatternRootContent2"><g id="BgenPttrnLayer2Element3"><use xlink:href="#BgenPttrnElement3" x="36.15008544921875" y="-77.66944885253906" transform="translate(82, -35.5) scale(1) translate(-82, 35.5) rotate(90, 82, -35.5)"></use><use xlink:href="#BgenPttrnElement3" x="-45.84991455078125" y="-77.66944885253906" transform="translate(0, -35.5) scale(1) translate(0, 35.5) rotate(90, 0, -35.5)"></use><use xlink:href="#BgenPttrnElement3" x="-4.84991455078125" y="-6.6694488525390625" transform="translate(41, 35.5) scale(1) translate(-41, -35.5) rotate(90, 41, 35.5)"></use><use xlink:href="#BgenPttrnElement3" x="-86.84991455078125" y="-6.6694488525390625" transform="translate(-41, 35.5) scale(1) translate(41, -35.5) rotate(90, -41, 35.5)"></use><use xlink:href="#BgenPttrnElement3" x="77.15008544921875" y="-6.6694488525390625" transform="translate(123, 35.5) scale(1) translate(-123, -35.5) rotate(90, 123, 35.5)"></use><use xlink:href="#BgenPttrnElement3" x="36.15008544921875" y="64.33055114746094" transform="translate(82, 106.5) scale(1) translate(-82, -106.5) rotate(90, 82, 106.5)"></use><use xlink:href="#BgenPttrnElement3" x="-45.84991455078125" y="64.33055114746094" transform="translate(0, 106.5) scale(1) translate(0, -106.5) rotate(90, 0, 106.5)"></use><use xlink:href="#BgenPttrnElement3" x="-4.84991455078125" y="135.33055114746094" transform="translate(41, 177.5) scale(1) translate(-41, -177.5) rotate(90, 41, 177.5)"></use><use xlink:href="#BgenPttrnElement3" x="-4.84991455078125" y="135.33055114746094" transform="translate(41, 177.5) scale(1) translate(-41, -177.5) rotate(90, 41, 177.5)"></use></g></g></pattern><symbol id="BgenPttrnElement3"><g class="color_4 fill_color_4" fill="#e6e6e6"><path d="M45.85,69.33954620361328A10,10,0,0,1,35.85,59.339A10,10,0,0,1,45.85,49.339A10,10,0,0,1,55.85,59.339A10,10,0,0,1,45.85,69.339M45.85,67.33954620361328A8,8,0,0,0,53.85,59.339A8,8,0,0,0,45.85,51.339A8,8,0,0,0,37.85,59.339A8,8,0,0,0,45.85,67.339M41.25,55.939544677734375L45.85,60.53954315185547L50.45,55.939544677734375L51.85,57.33954620361328L45.85,63.33954620361328L39.85,57.33954620361328L41.25,55.939544677734375Z" transform="matrix(1,0,0,1,0,0)"></path><path d="M45.85,69.33954620361328A10.000000381579632,10.000000381579632,0,0,1,59.51,65.679A10.000000381579632,10.000000381579632,0,0,1,63.17,79.339A10.000000381579632,10.000000381579632,0,0,1,49.51,82.999A10.000000381579632,10.000000381579632,0,0,1,45.85,69.339M47.582,70.33954620361328A8.000000305263706,8.000000305263706,0,0,0,50.51,81.267A8.000000305263706,8.000000305263706,0,0,0,61.438,78.339A8.000000305263706,8.000000305263706,0,0,0,58.51,67.411A8.000000305263706,8.000000305263706,0,0,0,47.582,70.339M59.754,72.05582427978516L53.471,73.73954010009766L55.154,80.02326202392578L53.242,80.53569793701172L51.046,72.33954620361328L59.242,70.14338684082031L59.754,72.05582427978516Z" transform="matrix(1,0,0,1,0,0)"></path><path d="M45.85,69.33954620361328A10.000000381579632,10.000000381579632,0,0,1,42.189,82.999A10.000000381579632,10.000000381579632,0,0,1,28.529,79.339A10.000000381579632,10.000000381579632,0,0,1,32.189,65.679A10.000000381579632,10.000000381579632,0,0,1,45.85,69.339M44.117,70.33954620361328A8.000000305263706,8.000000305263706,0,0,0,33.189,67.411A8.000000305263706,8.000000305263706,0,0,0,30.261,78.339A8.000000305263706,8.000000305263706,0,0,0,41.189,81.267A8.000000305263706,8.000000305263706,0,0,0,44.117,70.339M36.545,80.02326202392578L38.228,73.73954010009766L31.945,72.05582427978516L32.457,70.14339447021484L40.653,72.33954620361328L38.457,80.53569793701172L36.545,80.02326202392578Z" transform="matrix(1,0,0,1,0,0)"></path><path d="M22.32,55.75489807128906A10.000000381579632,10.000000381579632,0,0,1,25.981,42.094A10.000000381579632,10.000000381579632,0,0,1,39.641,45.755A10.000000381579632,10.000000381579632,0,0,1,35.981,59.415A10.000000381579632,10.000000381579632,0,0,1,22.32,55.755M24.052,54.75489807128906A8.000000305263706,8.000000305263706,0,0,0,34.981,57.683A8.000000305263706,8.000000305263706,0,0,0,37.909,46.755A8.000000305263706,8.000000305263706,0,0,0,26.981,43.827A8.000000305263706,8.000000305263706,0,0,0,24.053,54.755M31.625,45.07118225097656L29.941,51.354896545410156L36.225,53.03861618041992L35.712,54.9510498046875L27.516,52.75489807128906L29.712,44.558746337890625L31.625,45.07118225097656Z" transform="matrix(1,0,0,1,0,0)"></path><path d="M22.32,55.75489807128906A10.000000763159278,10.000000763159278,0,0,1,32.32,65.755A10.000000763159278,10.000000763159278,0,0,1,22.32,75.754A10.000000763159278,10.000000763159278,0,0,1,12.321,65.754A10.000000763159278,10.000000763159278,0,0,1,22.32,55.755M22.32,57.754852294921875A8.000000610527422,8.000000610527422,0,0,0,14.321,65.754A8.000000610527422,8.000000610527422,0,0,0,22.32,73.754A8.000000610527422,8.000000610527422,0,0,0,30.32,65.755A8.000000610527422,8.000000610527422,0,0,0,22.32,57.755M26.92,69.15425109863281L22.32,64.55487823486328L17.72,69.15425872802734L16.32,67.75463104248047L22.32,61.754764556884766L28.32,67.75463104248047L26.92,69.15425109863281Z" transform="matrix(1,0,0,1,0,0)"></path><path d="M22.32,55.75489807128906A10.000000763159278,10.000000763159278,0,0,1,8.66,59.414A10.000000763159278,10.000000763159278,0,0,1,5,45.754A10.000000763159278,10.000000763159278,0,0,1,18.66,42.094A10.000000763159278,10.000000763159278,0,0,1,22.32,55.755M20.588,54.75407409667969A8.000000610527422,8.000000610527422,0,0,0,17.66,43.826A8.000000610527422,8.000000610527422,0,0,0,6.732,46.754A8.000000610527422,8.000000610527422,0,0,0,9.66,57.682A8.000000610527422,8.000000610527422,0,0,0,20.588,54.754M8.415,53.03839111328125L14.699,51.35405349731445L13.015,45.07095718383789L14.927,44.558143615722656L17.124,52.75416564941406L8.927,54.9504508972168L8.415,53.03839111328125Z" transform="matrix(1,0,0,1,0,0)"></path><path d="M22.32,28.58475112915039A10.000000381579632,10.000000381579632,0,0,1,35.98,24.925A10.000000381579632,10.000000381579632,0,0,1,39.64,38.585A10.000000381579632,10.000000381579632,0,0,1,25.98,42.245A10.000000381579632,10.000000381579632,0,0,1,22.32,28.585M24.052,29.58475112915039A8.000000305263706,8.000000305263706,0,0,0,26.98,40.513A8.000000305263706,8.000000305263706,0,0,0,37.908,37.585A8.000000305263706,8.000000305263706,0,0,0,34.98,26.657A8.000000305263706,8.000000305263706,0,0,0,24.052,29.585M36.224,31.301034927368164L29.941,32.98474884033203L31.624,39.26846694946289L29.712,39.78090286254883L27.516,31.58475112915039L35.712,29.38859748840332L36.224,31.301034927368164Z" transform="matrix(1,0,0,1,0,0)"></path><path d="M22.32,28.58475112915039A10.000000763159278,10.000000763159278,0,0,1,18.66,42.245A10.000000763159278,10.000000763159278,0,0,1,5,38.585A10.000000763159278,10.000000763159278,0,0,1,8.66,24.925A10.000000763159278,10.000000763159278,0,0,1,22.32,28.585M20.588,29.584707260131836A8.000000610527422,8.000000610527422,0,0,0,9.66,26.657A8.000000610527422,8.000000610527422,0,0,0,6.732,37.585A8.000000610527422,8.000000610527422,0,0,0,17.66,40.513A8.000000610527422,8.000000610527422,0,0,0,20.588,29.585M13.015,39.267826080322266L14.699,32.9847297668457L8.415,31.300392150878906L8.927,29.388334274291992L17.124,31.58462142944336L14.927,39.7806396484375L13.015,39.267826080322266Z" transform="matrix(1,0,0,1,0,0)"></path><path d="M22.32,28.58475112915039A10.000000763159278,10.000000763159278,0,0,1,12.321,18.584A10.000000763159278,10.000000763159278,0,0,1,22.32,8.585A10.000000763159278,10.000000763159278,0,0,1,32.32,18.584A10.000000763159278,10.000000763159278,0,0,1,22.32,28.585M22.32,26.58392906188965A8.000000610527422,8.000000610527422,0,0,0,30.32,18.584A8.000000610527422,8.000000610527422,0,0,0,22.32,10.585A8.000000610527422,8.000000610527422,0,0,0,14.321,18.584A8.000000610527422,8.000000610527422,0,0,0,22.32,26.584M17.72,15.184525489807129L22.32,19.783905029296875L26.92,15.184526443481445L28.32,16.584148406982422L22.32,22.584016799926758L16.32,16.584148406982422L17.72,15.184525489807129Z" transform="matrix(1,0,0,1,0,0)"></path><path d="M45.849,14.999248504638672A10,10,0,0,1,55.849,25A10,10,0,0,1,45.849,35A10,10,0,0,1,35.849,25A10,10,0,0,1,45.849,15M45.849,16.999248504638672A8,8,0,0,0,37.849,25A8,8,0,0,0,45.849,33A8,8,0,0,0,53.849,25A8,8,0,0,0,45.849,17M50.449,28.399248123168945L45.849,23.79924964904785L41.249,28.399248123168945L39.849,26.999248504638672L45.849,20.999248504638672L51.849,26.999248504638672L50.449,28.399248123168945Z" transform="matrix(1,0,0,1,0,0)"></path><path d="M45.849,14.999250411987305A10.000000381579632,10.000000381579632,0,0,1,32.189,18.66A10.000000381579632,10.000000381579632,0,0,1,28.529,5A10.000000381579632,10.000000381579632,0,0,1,42.189,1.34A10.000000381579632,10.000000381579632,0,0,1,45.849,15M44.117,13.999250411987305A8.000000305263706,8.000000305263706,0,0,0,41.189,3.072A8.000000305263706,8.000000305263706,0,0,0,30.261,6A8.000000305263706,8.000000305263706,0,0,0,33.189,16.928A8.000000305263706,8.000000305263706,0,0,0,44.117,14M31.945,12.282968521118164L38.228,10.599250793457031L36.545,4.315530300140381L38.457,3.8030943870544434L40.653,11.999250411987305L32.457,14.195404052734375L31.945,12.282968521118164Z" transform="matrix(1,0,0,1,0,0)"></path><path d="M45.849,14.999248504638672A10.000000381579632,10.000000381579632,0,0,1,49.51,1.34A10.000000381579632,10.000000381579632,0,0,1,63.17,5A10.000000381579632,10.000000381579632,0,0,1,59.51,18.66A10.000000381579632,10.000000381579632,0,0,1,45.849,15M47.582,13.999248504638672A8.000000305263706,8.000000305263706,0,0,0,58.51,16.928A8.000000305263706,8.000000305263706,0,0,0,61.438,6A8.000000305263706,8.000000305263706,0,0,0,50.51,3.072A8.000000305263706,8.000000305263706,0,0,0,47.582,14M55.154,4.315530300140381L53.471,10.599248886108398L59.754,12.282966613769531L59.242,14.19540023803711L51.046,11.999248504638672L53.242,3.8030943870544434L55.154,4.315530300140381Z" transform="matrix(1,0,0,1,0,0)"></path><path d="M69.38,28.58389663696289A10.000000381579632,10.000000381579632,0,0,1,65.719,42.244A10.000000381579632,10.000000381579632,0,0,1,52.059,38.584A10.000000381579632,10.000000381579632,0,0,1,55.719,24.924A10.000000381579632,10.000000381579632,0,0,1,69.379,28.584M67.648,29.58389663696289A8.000000305263706,8.000000305263706,0,0,0,56.719,26.656A8.000000305263706,8.000000305263706,0,0,0,53.791,37.584A8.000000305263706,8.000000305263706,0,0,0,64.719,40.512A8.000000305263706,8.000000305263706,0,0,0,67.647,29.584M60.075,39.26761245727539L61.759,32.98389434814453L55.475,31.300180435180664L55.987,29.387744903564453L64.184,31.58389663696289L61.987,39.78004837036133L60.075,39.26761245727539Z" transform="matrix(1,0,0,1,0,0)"></path><path d="M69.38,28.583898544311523A10.000000763159278,10.000000763159278,0,0,1,59.38,18.584A10.000000763159278,10.000000763159278,0,0,1,69.38,8.585A10.000000763159278,10.000000763159278,0,0,1,79.379,18.584A10.000000763159278,10.000000763159278,0,0,1,69.379,28.584M69.38,26.583942413330078A8.000000610527422,8.000000610527422,0,0,0,77.379,18.584A8.000000610527422,8.000000610527422,0,0,0,69.38,10.585A8.000000610527422,8.000000610527422,0,0,0,61.38,18.584A8.000000610527422,8.000000610527422,0,0,0,69.379,26.584M64.78,15.184539794921875L69.38,19.783918380737305L73.98,15.184536933898926L75.38,16.58415985107422L69.38,22.584028244018555L63.38,16.58415985107422L64.78,15.184539794921875Z" transform="matrix(1,0,0,1,0,0)"></path><path d="M69.38,28.58389663696289A10.000000763159278,10.000000763159278,0,0,1,83.04,24.925A10.000000763159278,10.000000763159278,0,0,1,86.7,38.585A10.000000763159278,10.000000763159278,0,0,1,73.04,42.245A10.000000763159278,10.000000763159278,0,0,1,69.379,28.584M71.112,29.584718704223633A8.000000610527422,8.000000610527422,0,0,0,74.04,40.513A8.000000610527422,8.000000610527422,0,0,0,84.968,37.585A8.000000610527422,8.000000610527422,0,0,0,82.04,26.657A8.000000610527422,8.000000610527422,0,0,0,71.112,29.585M83.285,31.300405502319336L77.001,32.9847412109375L78.685,39.26783752441406L76.772,39.78064727783203L74.576,31.584630966186523L82.772,29.38834571838379L83.285,31.300405502319336Z" transform="matrix(1,0,0,1,0,0)"></path><path d="M69.38,55.75404357910156A10.000000381579632,10.000000381579632,0,0,1,55.72,59.414A10.000000381579632,10.000000381579632,0,0,1,52.059,45.754A10.000000381579632,10.000000381579632,0,0,1,65.72,42.094A10.000000381579632,10.000000381579632,0,0,1,69.38,55.754M67.648,54.75404357910156A8.000000305263706,8.000000305263706,0,0,0,64.72,43.826A8.000000305263706,8.000000305263706,0,0,0,53.791,46.754A8.000000305263706,8.000000305263706,0,0,0,56.72,57.682A8.000000305263706,8.000000305263706,0,0,0,67.648,54.754M55.475,53.03776168823242L61.759,51.35404586791992L60.075,45.07032775878906L61.988,44.557891845703125L64.184,52.75404357910156L55.988,54.9501953125L55.475,53.03776168823242Z" transform="matrix(1,0,0,1,0,0)"></path><path d="M69.38,55.75404357910156A10.000000763159278,10.000000763159278,0,0,1,73.04,42.094A10.000000763159278,10.000000763159278,0,0,1,86.7,45.754A10.000000763159278,10.000000763159278,0,0,1,83.04,59.414A10.000000763159278,10.000000763159278,0,0,1,69.38,55.754M71.112,54.754085540771484A8.000000610527422,8.000000610527422,0,0,0,82.04,57.682A8.000000610527422,8.000000610527422,0,0,0,84.968,46.754A8.000000610527422,8.000000610527422,0,0,0,74.04,43.826A8.000000610527422,8.000000610527422,0,0,0,71.112,54.754M78.685,45.07096862792969L77.001,51.354061126708984L83.285,53.03840255737305L82.772,54.950462341308594L74.576,52.754173278808594L76.772,44.55815124511719L78.685,45.07096862792969Z" transform="matrix(1,0,0,1,0,0)"></path><path d="M69.38,55.75404357910156A10.000000763159278,10.000000763159278,0,0,1,79.379,65.754A10.000000763159278,10.000000763159278,0,0,1,69.38,75.754A10.000000763159278,10.000000763159278,0,0,1,59.38,65.755A10.000000763159278,10.000000763159278,0,0,1,69.38,55.754M69.38,57.75486755371094A8.000000610527422,8.000000610527422,0,0,0,61.38,65.755A8.000000610527422,8.000000610527422,0,0,0,69.38,73.754A8.000000610527422,8.000000610527422,0,0,0,77.379,65.754A8.000000610527422,8.000000610527422,0,0,0,69.379,57.755M73.98,69.15426635742188L69.38,64.55488586425781L64.78,69.15426635742188L63.38,67.75464630126953L69.38,61.75477600097656L75.38,67.75464630126953L73.98,69.15426635742188Z" transform="matrix(1,0,0,1,0,0)"></path></g></symbol></defs><rect width="100%" height="100%" id="BgenPttrnRctLayer1" fill="url(#BgenPttrnLayer1)"></rect><rect width="100%" height="100%" id="BgenPttrnRctLayer2" fill="url(#BgenPttrnLayer2)"></rect></svg>